<svg xmlns="http://www.w3.org/2000/svg" xmlns:xlink="http://www.w3.org/1999/xlink" width="500" zoomAndPan="magnify" viewBox="0 0 375 374.999991" height="500" preserveAspectRatio="xMidYMid meet" version="1.0"><defs><clipPath id="id1"><path d="M 71.839844 74.894531 L 302.839844 74.894531 L 302.839844 157 L 71.839844 157 Z M 71.839844 74.894531 " clip-rule="nonzero"/></clipPath><clipPath id="id2"><path d="M 71.839844 175 L 102 175 L 102 255 L 71.839844 255 Z M 71.839844 175 " clip-rule="nonzero"/></clipPath><clipPath id="id3"><path d="M 273 175 L 302.839844 175 L 302.839844 255 L 273 255 Z M 273 175 " clip-rule="nonzero"/></clipPath><clipPath id="id4"><path d="M 71.839844 273 L 302.839844 273 L 302.839844 300.394531 L 71.839844 300.394531 Z M 71.839844 273 " clip-rule="nonzero"/></clipPath></defs><rect x="-37.5" width="450" fill="rgb(100%, 100%, 100%)" y="-37.499999" height="449.999989" fill-opacity="1"/><rect x="-37.5" width="450" fill="rgb(100%, 100%, 100%)" y="-37.499999" height="449.999989" fill-opacity="1"/><rect x="-37.5" width="450" fill="rgb(100%, 100%, 100%)" y="-37.499999" height="449.999989" fill-opacity="1"/><rect x="-37.5" width="450" fill="rgb(100%, 100%, 100%)" y="-37.499999" height="449.999989" fill-opacity="1"/><g clip-path="url(#id1)"><path fill="rgb(54.899597%, 32.159424%, 100%)" d="M 187.386719 74.894531 L 71.839844 156.871094 L 302.9375 156.871094 Z M 187.386719 74.894531 " fill-opacity="1" fill-rule="nonzero"/></g><g clip-path="url(#id2)"><path fill="rgb(98.429871%, 69.018555%, 23.139954%)" d="M 101.019531 175.804688 L 71.839844 175.804688 L 71.839844 254.335938 L 101.019531 254.335938 L 101.019531 175.804688 " fill-opacity="1" fill-rule="nonzero"/></g><path fill="rgb(98.429871%, 69.018555%, 23.139954%)" d="M 151.5 254.335938 L 151.5 175.804688 L 122.316406 175.804688 L 122.316406 254.335938 L 151.5 254.335938 " fill-opacity="1" fill-rule="nonzero"/><path fill="rgb(98.429871%, 69.018555%, 23.139954%)" d="M 201.980469 254.335938 L 201.980469 175.804688 L 172.796875 175.804688 L 172.796875 254.335938 L 201.980469 254.335938 " fill-opacity="1" fill-rule="nonzero"/><path fill="rgb(98.429871%, 69.018555%, 23.139954%)" d="M 252.457031 254.335938 L 252.457031 175.804688 L 223.277344 175.804688 L 223.277344 254.335938 L 252.457031 254.335938 " fill-opacity="1" fill-rule="nonzero"/><g clip-path="url(#id3)"><path fill="rgb(98.429871%, 69.018555%, 23.139954%)" d="M 273.765625 254.335938 L 302.9375 254.335938 L 302.9375 175.804688 L 273.765625 175.804688 L 273.765625 254.335938 " fill-opacity="1" fill-rule="nonzero"/></g><g clip-path="url(#id4)"><path fill="rgb(54.899597%, 32.159424%, 100%)" d="M 71.839844 300.394531 L 302.9375 300.394531 L 302.9375 273.824219 L 71.839844 273.824219 L 71.839844 300.394531 " fill-opacity="1" fill-rule="nonzero"/></g></svg>