<svg xmlns="http://www.w3.org/2000/svg" xmlns:xlink="http://www.w3.org/1999/xlink" width="500" zoomAndPan="magnify" viewBox="0 0 375 374.999991" height="500" preserveAspectRatio="xMidYMid meet" version="1.0"><defs><g><g id="id1"/><g id="id2"/></g><clipPath id="id3"><path d="M 71.234375 37.664062 L 303.734375 37.664062 L 303.734375 120 L 71.234375 120 Z M 71.234375 37.664062 " clip-rule="nonzero"/></clipPath><clipPath id="id4"><path d="M 71.234375 138 L 101 138 L 101 218 L 71.234375 218 Z M 71.234375 138 " clip-rule="nonzero"/></clipPath><clipPath id="id5"><path d="M 274 138.0625 L 303.734375 138.0625 L 303.734375 218 L 274 218 Z M 274 138.0625 " clip-rule="nonzero"/></clipPath><clipPath id="id6"><path d="M 71.234375 237 L 303.734375 237 L 303.734375 263.917969 L 71.234375 263.917969 Z M 71.234375 237 " clip-rule="nonzero"/></clipPath></defs><rect x="-37.5" width="450" fill="rgb(100%, 100%, 100%)" y="-37.499999" height="449.999989" fill-opacity="1"/><rect x="-37.5" width="450" fill="rgb(100%, 100%, 100%)" y="-37.499999" height="449.999989" fill-opacity="1"/><rect x="-37.5" width="450" fill="rgb(100%, 100%, 100%)" y="-37.499999" height="449.999989" fill-opacity="1"/><rect x="-37.5" width="450" fill="rgb(100%, 100%, 100%)" y="-37.499999" height="449.999989" fill-opacity="1"/><g clip-path="url(#id3)"><path fill="rgb(54.899597%, 32.159424%, 100%)" d="M 187.53125 37.664062 L 71.234375 119.910156 L 303.832031 119.910156 Z M 187.53125 37.664062 " fill-opacity="1" fill-rule="nonzero"/></g><g clip-path="url(#id4)"><path fill="rgb(98.429871%, 69.018555%, 23.139954%)" d="M 100.605469 138.910156 L 71.234375 138.910156 L 71.234375 217.707031 L 100.605469 217.707031 L 100.605469 138.910156 " fill-opacity="1" fill-rule="nonzero"/></g><path fill="rgb(98.429871%, 69.018555%, 23.139954%)" d="M 151.410156 217.707031 L 151.410156 138.910156 L 122.039062 138.910156 L 122.039062 217.707031 L 151.410156 217.707031 " fill-opacity="1" fill-rule="nonzero"/><path fill="rgb(98.429871%, 69.018555%, 23.139954%)" d="M 202.21875 217.707031 L 202.21875 138.910156 L 172.847656 138.910156 L 172.847656 217.707031 L 202.21875 217.707031 " fill-opacity="1" fill-rule="nonzero"/><path fill="rgb(98.429871%, 69.018555%, 23.139954%)" d="M 253.027344 217.707031 L 253.027344 138.910156 L 223.652344 138.910156 L 223.652344 217.707031 L 253.027344 217.707031 " fill-opacity="1" fill-rule="nonzero"/><g clip-path="url(#id5)"><path fill="rgb(98.429871%, 69.018555%, 23.139954%)" d="M 274.472656 217.707031 L 303.832031 217.707031 L 303.832031 138.910156 L 274.472656 138.910156 L 274.472656 217.707031 " fill-opacity="1" fill-rule="nonzero"/></g><g clip-path="url(#id6)"><path fill="rgb(54.899597%, 32.159424%, 100%)" d="M 71.234375 263.917969 L 303.832031 263.917969 L 303.832031 237.257812 L 71.234375 237.257812 L 71.234375 263.917969 " fill-opacity="1" fill-rule="nonzero"/></g><g fill="rgb(0%, 0%, 0%)" fill-opacity="1"><g transform="translate(126.609371, 301.685899)"><g><path d="M 18.6875 -6.828125 C 18.6875 -4.503906 17.957031 -2.734375 16.5 -1.515625 C 15.039062 -0.304688 12.960938 0.296875 10.265625 0.296875 C 7.578125 0.296875 5.5 -0.304688 4.03125 -1.515625 C 2.5625 -2.734375 1.828125 -4.503906 1.828125 -6.828125 L 1.828125 -16.9375 L 7.265625 -16.9375 L 7.265625 -6.890625 C 7.265625 -5.941406 7.519531 -5.179688 8.03125 -4.609375 C 8.539062 -4.046875 9.28125 -3.765625 10.25 -3.765625 C 11.21875 -3.765625 11.957031 -4.050781 12.46875 -4.625 C 12.988281 -5.195312 13.25 -5.953125 13.25 -6.890625 L 13.25 -16.9375 L 18.6875 -16.9375 Z M 18.6875 -6.828125 "/></g></g></g><g fill="rgb(0%, 0%, 0%)" fill-opacity="1"><g transform="translate(147.118716, 301.685899)"><g><path d="M 10.4375 -13.296875 C 11.945312 -13.296875 13.078125 -12.875 13.828125 -12.03125 C 14.585938 -11.195312 14.96875 -9.992188 14.96875 -8.421875 L 14.96875 0 L 10.078125 0 L 10.078125 -7.828125 C 10.078125 -8.390625 9.929688 -8.835938 9.640625 -9.171875 C 9.347656 -9.503906 8.941406 -9.671875 8.421875 -9.671875 C 7.816406 -9.671875 7.320312 -9.472656 6.9375 -9.078125 C 6.5625 -8.691406 6.375 -8.210938 6.375 -7.640625 L 6.375 0 L 1.484375 0 L 1.484375 -13 L 5.484375 -13 L 5.8125 -11.03125 C 6.320312 -11.71875 6.988281 -12.265625 7.8125 -12.671875 C 8.644531 -13.085938 9.519531 -13.296875 10.4375 -13.296875 Z M 10.4375 -13.296875 "/></g></g></g><g fill="rgb(0%, 0%, 0%)" fill-opacity="1"><g transform="translate(163.540964, 301.685899)"><g><path d="M 8.203125 -13.296875 C 10.484375 -13.296875 12.273438 -12.71875 13.578125 -11.5625 C 14.878906 -10.40625 15.53125 -8.71875 15.53125 -6.5 C 15.53125 -4.28125 14.878906 -2.59375 13.578125 -1.4375 C 12.273438 -0.28125 10.484375 0.296875 8.203125 0.296875 C 5.921875 0.296875 4.128906 -0.273438 2.828125 -1.421875 C 1.535156 -2.578125 0.890625 -4.269531 0.890625 -6.5 C 0.890625 -8.726562 1.535156 -10.414062 2.828125 -11.5625 C 4.128906 -12.71875 5.921875 -13.296875 8.203125 -13.296875 Z M 8.203125 -9.96875 C 6.585938 -9.96875 5.78125 -9.039062 5.78125 -7.1875 L 5.78125 -5.78125 C 5.78125 -3.945312 6.585938 -3.03125 8.203125 -3.03125 C 9.828125 -3.03125 10.640625 -3.945312 10.640625 -5.78125 L 10.640625 -7.1875 C 10.640625 -9.039062 9.828125 -9.96875 8.203125 -9.96875 Z M 8.203125 -9.96875 "/></g></g></g><g fill="rgb(0%, 0%, 0%)" fill-opacity="1"><g transform="translate(179.963212, 301.685899)"><g><path d="M 13.09375 -16.9375 C 13.945312 -16.9375 14.726562 -16.757812 15.4375 -16.40625 C 16.15625 -16.0625 16.722656 -15.566406 17.140625 -14.921875 C 17.566406 -14.285156 17.78125 -13.570312 17.78125 -12.78125 C 17.78125 -10.695312 16.835938 -9.382812 14.953125 -8.84375 L 14.953125 -8.734375 C 17.097656 -8.242188 18.171875 -6.832031 18.171875 -4.5 C 18.171875 -3.613281 17.953125 -2.828125 17.515625 -2.140625 C 17.085938 -1.460938 16.492188 -0.9375 15.734375 -0.5625 C 14.984375 -0.1875 14.15625 0 13.25 0 L 1.828125 0 L 1.828125 -16.9375 Z M 7.265625 -10.34375 L 11 -10.34375 C 11.363281 -10.34375 11.664062 -10.46875 11.90625 -10.71875 C 12.144531 -10.976562 12.265625 -11.296875 12.265625 -11.671875 L 12.265625 -11.921875 C 12.265625 -12.273438 12.140625 -12.578125 11.890625 -12.828125 C 11.648438 -13.085938 11.351562 -13.21875 11 -13.21875 L 7.265625 -13.21875 Z M 7.265625 -3.9375 L 11.40625 -3.9375 C 11.757812 -3.9375 12.054688 -4.0625 12.296875 -4.3125 C 12.535156 -4.570312 12.65625 -4.890625 12.65625 -5.265625 L 12.65625 -5.515625 C 12.65625 -5.890625 12.535156 -6.203125 12.296875 -6.453125 C 12.054688 -6.710938 11.757812 -6.84375 11.40625 -6.84375 L 7.265625 -6.84375 Z M 7.265625 -3.9375 "/></g></g></g><g fill="rgb(0%, 0%, 0%)" fill-opacity="1"><g transform="translate(199.1184, 301.685899)"><g><path d="M 7.90625 -13.296875 C 9.894531 -13.296875 11.507812 -12.960938 12.75 -12.296875 C 14 -11.628906 14.625 -10.550781 14.625 -9.0625 L 14.625 -3.984375 C 14.625 -3.710938 14.6875 -3.484375 14.8125 -3.296875 C 14.945312 -3.117188 15.148438 -3.03125 15.421875 -3.03125 L 16.296875 -3.03125 L 16.296875 -0.203125 C 16.253906 -0.160156 16.128906 -0.101562 15.921875 -0.03125 C 15.710938 0.0390625 15.421875 0.113281 15.046875 0.1875 C 14.671875 0.257812 14.234375 0.296875 13.734375 0.296875 C 12.785156 0.296875 12.003906 0.15625 11.390625 -0.125 C 10.773438 -0.414062 10.351562 -0.816406 10.125 -1.328125 C 9.5 -0.835938 8.800781 -0.441406 8.03125 -0.140625 C 7.257812 0.148438 6.351562 0.296875 5.3125 0.296875 C 2.257812 0.296875 0.734375 -0.914062 0.734375 -3.34375 C 0.734375 -4.613281 1.070312 -5.578125 1.75 -6.234375 C 2.4375 -6.898438 3.421875 -7.359375 4.703125 -7.609375 C 5.984375 -7.859375 7.660156 -7.984375 9.734375 -7.984375 L 9.734375 -8.625 C 9.734375 -9.125 9.554688 -9.503906 9.203125 -9.765625 C 8.847656 -10.035156 8.390625 -10.171875 7.828125 -10.171875 C 7.316406 -10.171875 6.875 -10.078125 6.5 -9.890625 C 6.132812 -9.710938 5.953125 -9.425781 5.953125 -9.03125 L 5.953125 -8.9375 L 1.125 -8.9375 C 1.113281 -9.019531 1.109375 -9.132812 1.109375 -9.28125 C 1.109375 -10.507812 1.691406 -11.484375 2.859375 -12.203125 C 4.035156 -12.929688 5.71875 -13.296875 7.90625 -13.296875 Z M 9.734375 -5.65625 C 8.335938 -5.65625 7.304688 -5.503906 6.640625 -5.203125 C 5.972656 -4.898438 5.640625 -4.492188 5.640625 -3.984375 C 5.640625 -3.171875 6.195312 -2.765625 7.3125 -2.765625 C 7.957031 -2.765625 8.519531 -2.9375 9 -3.28125 C 9.488281 -3.625 9.734375 -4.050781 9.734375 -4.5625 Z M 9.734375 -5.65625 "/></g></g></g><g fill="rgb(0%, 0%, 0%)" fill-opacity="1"><g transform="translate(215.540648, 301.685899)"><g><path d="M 10.4375 -13.296875 C 11.945312 -13.296875 13.078125 -12.875 13.828125 -12.03125 C 14.585938 -11.195312 14.96875 -9.992188 14.96875 -8.421875 L 14.96875 0 L 10.078125 0 L 10.078125 -7.828125 C 10.078125 -8.390625 9.929688 -8.835938 9.640625 -9.171875 C 9.347656 -9.503906 8.941406 -9.671875 8.421875 -9.671875 C 7.816406 -9.671875 7.320312 -9.472656 6.9375 -9.078125 C 6.5625 -8.691406 6.375 -8.210938 6.375 -7.640625 L 6.375 0 L 1.484375 0 L 1.484375 -13 L 5.484375 -13 L 5.8125 -11.03125 C 6.320312 -11.71875 6.988281 -12.265625 7.8125 -12.671875 C 8.644531 -13.085938 9.519531 -13.296875 10.4375 -13.296875 Z M 10.4375 -13.296875 "/></g></g></g><g fill="rgb(0%, 0%, 0%)" fill-opacity="1"><g transform="translate(231.962896, 301.685899)"><g><path d="M 10.546875 -13 L 16.25 -13 L 11.453125 -7.75 L 16.375 0 L 10.8125 0 L 8.078125 -4.453125 L 6.375 -2.8125 L 6.375 0 L 1.484375 0 L 1.484375 -17.875 L 6.375 -17.875 L 6.375 -8.03125 Z M 10.546875 -13 "/></g></g></g><g fill="rgb(0%, 0%, 0%)" fill-opacity="1"><g transform="translate(112.014185, 334.041131)"><g><path d="M 5.40625 -8.265625 L 5.40625 0 L 3.34375 0 L 3.34375 -8.265625 L 0.15625 -8.265625 L 0.15625 -9.875 L 8.609375 -9.875 L 8.609375 -8.265625 Z M 5.40625 -8.265625 "/></g></g></g><g fill="rgb(0%, 0%, 0%)" fill-opacity="1"><g transform="translate(122.701992, 334.041131)"><g><path d="M 7.734375 0 L 5.453125 -3.75 L 3.03125 -3.75 L 3.03125 0 L 0.953125 0 L 0.953125 -9.875 L 5.890625 -9.875 C 7.066406 -9.875 7.972656 -9.617188 8.609375 -9.109375 C 9.253906 -8.597656 9.578125 -7.867188 9.578125 -6.921875 C 9.578125 -6.234375 9.378906 -5.640625 8.984375 -5.140625 C 8.585938 -4.640625 8.054688 -4.304688 7.390625 -4.140625 L 10.0625 0 Z M 7.5 -6.84375 C 7.5 -7.789062 6.890625 -8.265625 5.671875 -8.265625 L 3.03125 -8.265625 L 3.03125 -5.34375 L 5.734375 -5.34375 C 6.304688 -5.34375 6.742188 -5.472656 7.046875 -5.734375 C 7.347656 -6.003906 7.5 -6.375 7.5 -6.84375 Z M 7.5 -6.84375 "/></g></g></g><g fill="rgb(0%, 0%, 0%)" fill-opacity="1"><g transform="translate(134.987057, 334.041131)"><g><path d="M 5.0625 0.140625 C 3.707031 0.140625 2.664062 -0.1875 1.9375 -0.84375 C 1.21875 -1.507812 0.859375 -2.460938 0.859375 -3.703125 L 0.859375 -9.875 L 2.921875 -9.875 L 2.921875 -3.859375 C 2.921875 -3.078125 3.109375 -2.484375 3.484375 -2.078125 C 3.859375 -1.679688 4.40625 -1.484375 5.125 -1.484375 C 5.851562 -1.484375 6.414062 -1.691406 6.8125 -2.109375 C 7.21875 -2.535156 7.421875 -3.140625 7.421875 -3.921875 L 7.421875 -9.875 L 9.484375 -9.875 L 9.484375 -3.796875 C 9.484375 -2.546875 9.097656 -1.578125 8.328125 -0.890625 C 7.554688 -0.203125 6.46875 0.140625 5.0625 0.140625 Z M 5.0625 0.140625 "/></g></g></g><g fill="rgb(0%, 0%, 0%)" fill-opacity="1"><g transform="translate(147.27212, 334.041131)"><g><path d="M 9 -2.84375 C 9 -1.875 8.640625 -1.132812 7.921875 -0.625 C 7.210938 -0.113281 6.164062 0.140625 4.78125 0.140625 C 3.507812 0.140625 2.515625 -0.0820312 1.796875 -0.53125 C 1.078125 -0.976562 0.613281 -1.660156 0.40625 -2.578125 L 2.40625 -2.90625 C 2.539062 -2.375 2.800781 -1.988281 3.1875 -1.75 C 3.582031 -1.519531 4.128906 -1.40625 4.828125 -1.40625 C 6.273438 -1.40625 7 -1.84375 7 -2.71875 C 7 -3 6.914062 -3.226562 6.75 -3.40625 C 6.582031 -3.59375 6.347656 -3.75 6.046875 -3.875 C 5.742188 -4 5.164062 -4.144531 4.3125 -4.3125 C 3.570312 -4.488281 3.054688 -4.628906 2.765625 -4.734375 C 2.484375 -4.835938 2.222656 -4.957031 1.984375 -5.09375 C 1.753906 -5.238281 1.554688 -5.410156 1.390625 -5.609375 C 1.234375 -5.816406 1.109375 -6.054688 1.015625 -6.328125 C 0.921875 -6.597656 0.875 -6.90625 0.875 -7.25 C 0.875 -8.144531 1.207031 -8.828125 1.875 -9.296875 C 2.550781 -9.773438 3.523438 -10.015625 4.796875 -10.015625 C 6.023438 -10.015625 6.945312 -9.820312 7.5625 -9.4375 C 8.175781 -9.050781 8.570312 -8.421875 8.75 -7.546875 L 6.75 -7.265625 C 6.644531 -7.691406 6.429688 -8.007812 6.109375 -8.21875 C 5.796875 -8.4375 5.347656 -8.546875 4.765625 -8.546875 C 3.515625 -8.546875 2.890625 -8.15625 2.890625 -7.375 C 2.890625 -7.113281 2.953125 -6.898438 3.078125 -6.734375 C 3.210938 -6.578125 3.410156 -6.441406 3.671875 -6.328125 C 3.929688 -6.210938 4.460938 -6.066406 5.265625 -5.890625 C 6.210938 -5.691406 6.890625 -5.503906 7.296875 -5.328125 C 7.710938 -5.160156 8.035156 -4.960938 8.265625 -4.734375 C 8.503906 -4.515625 8.6875 -4.242188 8.8125 -3.921875 C 8.9375 -3.609375 9 -3.25 9 -2.84375 Z M 9 -2.84375 "/></g></g></g><g fill="rgb(0%, 0%, 0%)" fill-opacity="1"><g transform="translate(158.765563, 334.041131)"><g><path d="M 5.40625 -8.265625 L 5.40625 0 L 3.34375 0 L 3.34375 -8.265625 L 0.15625 -8.265625 L 0.15625 -9.875 L 8.609375 -9.875 L 8.609375 -8.265625 Z M 5.40625 -8.265625 "/></g></g></g><g fill="rgb(0%, 0%, 0%)" fill-opacity="1"><g transform="translate(169.453372, 334.041131)"><g/></g></g><g fill="rgb(0%, 0%, 0%)" fill-opacity="1"><g transform="translate(175.36342, 334.041131)"><g><path d="M 0.625 -2.703125 C 0.625 -3.328125 0.8125 -3.882812 1.1875 -4.375 C 1.570312 -4.875 2.175781 -5.3125 3 -5.6875 C 2.65625 -6.394531 2.484375 -7.046875 2.484375 -7.640625 C 2.484375 -8.367188 2.710938 -8.929688 3.171875 -9.328125 C 3.628906 -9.722656 4.28125 -9.921875 5.125 -9.921875 C 5.90625 -9.921875 6.519531 -9.734375 6.96875 -9.359375 C 7.425781 -8.984375 7.65625 -8.476562 7.65625 -7.84375 C 7.65625 -7.488281 7.5625 -7.164062 7.375 -6.875 C 7.195312 -6.582031 6.941406 -6.3125 6.609375 -6.0625 C 6.273438 -5.8125 5.710938 -5.503906 4.921875 -5.140625 C 5.378906 -4.316406 5.945312 -3.53125 6.625 -2.78125 C 7.113281 -3.519531 7.484375 -4.367188 7.734375 -5.328125 L 9.203125 -4.828125 C 8.878906 -3.742188 8.425781 -2.765625 7.84375 -1.890625 C 8.25 -1.546875 8.664062 -1.375 9.09375 -1.375 C 9.394531 -1.375 9.664062 -1.410156 9.90625 -1.484375 L 9.90625 -0.0625 C 9.65625 0.03125 9.351562 0.078125 9 0.078125 C 8.59375 0.078125 8.1875 0.0078125 7.78125 -0.125 C 7.375 -0.269531 7.007812 -0.484375 6.6875 -0.765625 C 5.882812 -0.160156 5 0.140625 4.03125 0.140625 C 2.945312 0.140625 2.109375 -0.109375 1.515625 -0.609375 C 0.921875 -1.109375 0.625 -1.804688 0.625 -2.703125 Z M 6.09375 -7.828125 C 6.09375 -8.097656 6.003906 -8.316406 5.828125 -8.484375 C 5.648438 -8.648438 5.410156 -8.734375 5.109375 -8.734375 C 4.742188 -8.734375 4.46875 -8.628906 4.28125 -8.421875 C 4.09375 -8.222656 4 -7.960938 4 -7.640625 C 4 -7.234375 4.125 -6.78125 4.375 -6.28125 C 4.863281 -6.488281 5.210938 -6.664062 5.421875 -6.8125 C 5.640625 -6.957031 5.804688 -7.109375 5.921875 -7.265625 C 6.035156 -7.429688 6.09375 -7.617188 6.09375 -7.828125 Z M 5.515625 -1.71875 C 4.742188 -2.582031 4.109375 -3.460938 3.609375 -4.359375 C 2.804688 -3.984375 2.40625 -3.4375 2.40625 -2.71875 C 2.40625 -2.257812 2.554688 -1.890625 2.859375 -1.609375 C 3.160156 -1.328125 3.578125 -1.1875 4.109375 -1.1875 C 4.410156 -1.1875 4.679688 -1.242188 4.921875 -1.359375 C 5.171875 -1.472656 5.367188 -1.59375 5.515625 -1.71875 Z M 5.515625 -1.71875 "/></g></g></g><g fill="rgb(0%, 0%, 0%)" fill-opacity="1"><g transform="translate(187.648487, 334.041131)"><g/></g></g><g fill="rgb(0%, 0%, 0%)" fill-opacity="1"><g transform="translate(193.558535, 334.041131)"><g><path d="M 9 -2.84375 C 9 -1.875 8.640625 -1.132812 7.921875 -0.625 C 7.210938 -0.113281 6.164062 0.140625 4.78125 0.140625 C 3.507812 0.140625 2.515625 -0.0820312 1.796875 -0.53125 C 1.078125 -0.976562 0.613281 -1.660156 0.40625 -2.578125 L 2.40625 -2.90625 C 2.539062 -2.375 2.800781 -1.988281 3.1875 -1.75 C 3.582031 -1.519531 4.128906 -1.40625 4.828125 -1.40625 C 6.273438 -1.40625 7 -1.84375 7 -2.71875 C 7 -3 6.914062 -3.226562 6.75 -3.40625 C 6.582031 -3.59375 6.347656 -3.75 6.046875 -3.875 C 5.742188 -4 5.164062 -4.144531 4.3125 -4.3125 C 3.570312 -4.488281 3.054688 -4.628906 2.765625 -4.734375 C 2.484375 -4.835938 2.222656 -4.957031 1.984375 -5.09375 C 1.753906 -5.238281 1.554688 -5.410156 1.390625 -5.609375 C 1.234375 -5.816406 1.109375 -6.054688 1.015625 -6.328125 C 0.921875 -6.597656 0.875 -6.90625 0.875 -7.25 C 0.875 -8.144531 1.207031 -8.828125 1.875 -9.296875 C 2.550781 -9.773438 3.523438 -10.015625 4.796875 -10.015625 C 6.023438 -10.015625 6.945312 -9.820312 7.5625 -9.4375 C 8.175781 -9.050781 8.570312 -8.421875 8.75 -7.546875 L 6.75 -7.265625 C 6.644531 -7.691406 6.429688 -8.007812 6.109375 -8.21875 C 5.796875 -8.4375 5.347656 -8.546875 4.765625 -8.546875 C 3.515625 -8.546875 2.890625 -8.15625 2.890625 -7.375 C 2.890625 -7.113281 2.953125 -6.898438 3.078125 -6.734375 C 3.210938 -6.578125 3.410156 -6.441406 3.671875 -6.328125 C 3.929688 -6.210938 4.460938 -6.066406 5.265625 -5.890625 C 6.210938 -5.691406 6.890625 -5.503906 7.296875 -5.328125 C 7.710938 -5.160156 8.035156 -4.960938 8.265625 -4.734375 C 8.503906 -4.515625 8.6875 -4.242188 8.8125 -3.921875 C 8.9375 -3.609375 9 -3.25 9 -2.84375 Z M 9 -2.84375 "/></g></g></g><g fill="rgb(0%, 0%, 0%)" fill-opacity="1"><g transform="translate(205.051978, 334.041131)"><g><path d="M 0.953125 0 L 0.953125 -9.875 L 8.71875 -9.875 L 8.71875 -8.265625 L 3.03125 -8.265625 L 3.03125 -5.796875 L 8.296875 -5.796875 L 8.296875 -4.1875 L 3.03125 -4.1875 L 3.03125 -1.59375 L 9 -1.59375 L 9 0 Z M 0.953125 0 "/></g></g></g><g fill="rgb(0%, 0%, 0%)" fill-opacity="1"><g transform="translate(216.545422, 334.041131)"><g><path d="M 5.5625 -1.484375 C 6.8125 -1.484375 7.679688 -2.109375 8.171875 -3.359375 L 9.96875 -2.6875 C 9.582031 -1.726562 9.015625 -1.015625 8.265625 -0.546875 C 7.515625 -0.0859375 6.613281 0.140625 5.5625 0.140625 C 3.976562 0.140625 2.753906 -0.304688 1.890625 -1.203125 C 1.023438 -2.109375 0.59375 -3.367188 0.59375 -4.984375 C 0.59375 -6.597656 1.007812 -7.835938 1.84375 -8.703125 C 2.675781 -9.578125 3.890625 -10.015625 5.484375 -10.015625 C 6.640625 -10.015625 7.582031 -9.78125 8.3125 -9.3125 C 9.039062 -8.851562 9.550781 -8.171875 9.84375 -7.265625 L 8.015625 -6.765625 C 7.859375 -7.265625 7.554688 -7.660156 7.109375 -7.953125 C 6.660156 -8.242188 6.128906 -8.390625 5.515625 -8.390625 C 4.585938 -8.390625 3.878906 -8.097656 3.390625 -7.515625 C 2.910156 -6.941406 2.671875 -6.097656 2.671875 -4.984375 C 2.671875 -3.847656 2.914062 -2.976562 3.40625 -2.375 C 3.90625 -1.78125 4.625 -1.484375 5.5625 -1.484375 Z M 5.5625 -1.484375 "/></g></g></g><g fill="rgb(0%, 0%, 0%)" fill-opacity="1"><g transform="translate(228.830488, 334.041131)"><g><path d="M 5.0625 0.140625 C 3.707031 0.140625 2.664062 -0.1875 1.9375 -0.84375 C 1.21875 -1.507812 0.859375 -2.460938 0.859375 -3.703125 L 0.859375 -9.875 L 2.921875 -9.875 L 2.921875 -3.859375 C 2.921875 -3.078125 3.109375 -2.484375 3.484375 -2.078125 C 3.859375 -1.679688 4.40625 -1.484375 5.125 -1.484375 C 5.851562 -1.484375 6.414062 -1.691406 6.8125 -2.109375 C 7.21875 -2.535156 7.421875 -3.140625 7.421875 -3.921875 L 7.421875 -9.875 L 9.484375 -9.875 L 9.484375 -3.796875 C 9.484375 -2.546875 9.097656 -1.578125 8.328125 -0.890625 C 7.554688 -0.203125 6.46875 0.140625 5.0625 0.140625 Z M 5.0625 0.140625 "/></g></g></g><g fill="rgb(0%, 0%, 0%)" fill-opacity="1"><g transform="translate(241.115548, 334.041131)"><g><path d="M 7.734375 0 L 5.453125 -3.75 L 3.03125 -3.75 L 3.03125 0 L 0.953125 0 L 0.953125 -9.875 L 5.890625 -9.875 C 7.066406 -9.875 7.972656 -9.617188 8.609375 -9.109375 C 9.253906 -8.597656 9.578125 -7.867188 9.578125 -6.921875 C 9.578125 -6.234375 9.378906 -5.640625 8.984375 -5.140625 C 8.585938 -4.640625 8.054688 -4.304688 7.390625 -4.140625 L 10.0625 0 Z M 7.5 -6.84375 C 7.5 -7.789062 6.890625 -8.265625 5.671875 -8.265625 L 3.03125 -8.265625 L 3.03125 -5.34375 L 5.734375 -5.34375 C 6.304688 -5.34375 6.742188 -5.472656 7.046875 -5.734375 C 7.347656 -6.003906 7.5 -6.375 7.5 -6.84375 Z M 7.5 -6.84375 "/></g></g></g><g fill="rgb(0%, 0%, 0%)" fill-opacity="1"><g transform="translate(253.400607, 334.041131)"><g><path d="M 0.953125 0 L 0.953125 -9.875 L 8.71875 -9.875 L 8.71875 -8.265625 L 3.03125 -8.265625 L 3.03125 -5.796875 L 8.296875 -5.796875 L 8.296875 -4.1875 L 3.03125 -4.1875 L 3.03125 -1.59375 L 9 -1.59375 L 9 0 Z M 0.953125 0 "/></g></g></g></svg>